<?xml version="1.0" encoding="UTF-8"?>
<!DOCTYPE svg PUBLIC "-//W3C//DTD SVG 1.1//EN" "http://www.w3.org/Graphics/SVG/1.1/DTD/svg11.dtd">
<!-- Creator: CorelDRAW 2019 (64-Bit) -->
<svg xmlns="http://www.w3.org/2000/svg" xml:space="preserve" width="2.85972in" height="1.75576in" version="1.1" style="shape-rendering:geometricPrecision; text-rendering:geometricPrecision; image-rendering:optimizeQuality; fill-rule:evenodd; clip-rule:evenodd"
viewBox="0 0 332.49 204.14"
 xmlns:xlink="http://www.w3.org/1999/xlink">
 <defs>
  <style type="text/css">
   <![CDATA[
    .fil3 {fill:#F39314}
    .fil1 {fill:#FEFEFE;fill-rule:nonzero}
    .fil0 {fill:#2B2A29;fill-rule:nonzero}
    .fil2 {fill:#F39314;fill-rule:nonzero}
   ]]>
  </style>
 </defs>
 <g id="Layer_x0020_1">
  <metadata id="CorelCorpID_0Corel-Layer"/>
  <g id="_2410641923904">
   <path class="fil0" d="M78.09 128.03l23.91 0 0 41.06c0,23.19 -8.7,34.06 -29.95,34.06 -21.98,0 -32.85,-11.11 -32.85,-33.58l0 -135.28c0,-22.95 10.87,-34.3 32.85,-34.3 20.05,0 29.95,11.35 29.95,33.82l0 35.27 -23.91 0 0 -35.27c0,-5.07 -1.93,-7.49 -6.04,-7.49 -4.11,0 -6.04,2.42 -6.04,7.49l0 135.52c0,5.07 1.93,7.49 6.04,7.49 4.11,0 6.04,-2.42 6.04,-7.49l0 -41.31z"/>
   <path class="fil1" d="M145.21 95.56c0.73,-8.69 1.41,-17.47 2.03,-26.36 0.19,2.72 0.38,5.42 0.59,8.11 0.04,0.58 0.08,1.16 0.13,1.74 0.24,3.27 0.49,6.52 0.74,9.75 0.13,1.74 0.26,3.48 0.41,5.22 0.64,8.14 1.31,16.18 2.02,24.19 0.27,3.05 0.55,6.09 0.83,9.13l-0 0c0.03,0.28 0.05,0.56 0.08,0.85 0.19,2.03 0.38,4.06 0.57,6.09 0.33,3.49 0.66,6.98 1.01,10.48 0.19,1.93 0.39,3.87 0.58,5.8l-14.38 0c1.05,-9.32 2.05,-18.74 2.98,-28.26 0.86,-8.82 1.67,-17.73 2.43,-26.74zm39.13 83.65l-2.68 -23.45 -4.35 -38.08 -2.04 -17.88 -2.36 -20.68 -9.04 -79.12 -31.26 0 -12.48 102.69 -3.49 28.7 -8.84 72.75 26.05 0 0.25 -2.08 0.72 -6.05 -17.06 0 0 -3.86c6.69,-2.84 12.84,-5.56 18.5,-8.18l1.06 -8.85 19.84 0 2.14 20.88 0.62 6.05 0.22 2.08 27.04 0 -2.84 -24.92z"/>
   <path class="fil1" d="M239.51 36.71c0,-6.45 -2.98,-9.67 -9.18,-9.67l-5.21 0 0 61.51 5.46 0c5.95,0 8.93,-3.22 8.93,-9.43l0 -42.41zm-0.5 167.43c-2.73,-30.76 -5.46,-60.27 -9.43,-91.03l-4.46 0 0 91.03 -27.04 0 0 -204.14 32.25 0c24.8,0 36.46,9.92 36.46,36.71l0 42.17c0,15.87 -3.47,23.81 -11.66,28.77 5.21,32.74 9.43,64.49 13.39,96.49l-29.52 0z"/>
   <path class="fil2" d="M185.12 79.37l2.06 -18.02 -5.15 0 -1.8 5.92c-7.47,25.23 -59.47,40.42 -110.2,40.42 -47.12,0 -58.19,-7.72 -58.19,-29.35 0,-5.41 1.54,-13.39 4.89,-23.43l-3.86 -1.8c-8.5,16.48 -12.87,31.93 -12.87,44.03 0,27.81 20.34,40.94 63.85,40.94 60.5,0 117.15,-26 121.27,-58.7z"/>
   <path class="fil2" d="M332.49 82.2l-1.8 5.93 -11.07 5.92c-26.78,14.29 -45.38,23.88 -59.31,29.9 -13.94,6.02 -23.2,8.47 -31.32,8.47 -10.3,0 -17.76,-4.12 -22.65,-12.36 -5.31,20.26 -12.87,40.51 -22,59.16 -2.82,5.76 -5.8,11.38 -8.9,16.79l-16.13 0 -2.14 -20.88 -3.05 0c0.23,-0.11 0.45,-0.24 0.68,-0.36 11.86,-6.44 20.59,-12.54 26.86,-18.99 11.11,-11.43 14.49,-23.96 13.86,-41.37l-0.77 -20.86 15.19 -32.18 5.15 0 -1.03 12.1c-1.8,21.88 3.86,32.7 20.08,32.7 6.44,0 19.05,-1.28 29.09,-4.11 -6.44,-7.47 -10.3,-16.22 -10.3,-25.49 0,-23.95 28.06,-52.78 50.72,-52.78 8.24,0 12.87,5.15 12.87,13.65 0,3.09 -1.03,9.01 -3.09,14.42 -6.18,-2.83 -13.9,-4.38 -18.8,-4.38 -16.74,0 -29.61,7.98 -29.61,20.08 0,5.15 3.09,9.78 9.53,13.65 6.43,4.12 14.16,6.18 23.68,6.18 10.05,0 18.28,-1.28 25.24,-3.6l8.24 -2.83 0.78 1.28z"/>
   <path class="fil2" d="M159.31 196l-41.55 0 0 -3.86c6.69,-2.84 12.84,-5.56 18.5,-8.18 0.49,-0.22 0.97,-0.45 1.44,-0.67 6.03,-2.82 11.49,-5.53 16.41,-8.18l3.05 0 2.14 20.88z"/>
   <path class="fil2" d="M159.31 196l-41.55 0 0 -3.86c6.69,-2.84 12.84,-5.56 18.5,-8.18 0.49,-0.22 0.97,-0.45 1.44,-0.67 6.03,-2.82 11.49,-5.53 16.41,-8.18l3.05 0 2.14 20.88z"/>
   <path class="fil1" d="M78.09 128.03l23.91 0 0 41.06c0,23.19 -8.7,34.06 -29.95,34.06 -21.98,0 -32.85,-11.11 -32.85,-33.58l0 -135.28c0,-22.95 10.87,-34.3 32.85,-34.3 20.05,0 29.95,11.35 29.95,33.82l0 35.27 -23.91 0 0 -35.27c0,-5.07 -1.93,-7.49 -6.04,-7.49 -4.11,0 -6.04,2.42 -6.04,7.49l0 135.52c0,5.07 1.93,7.49 6.04,7.49 4.11,0 6.04,-2.42 6.04,-7.49l0 -41.31z"/>
   <polygon class="fil1" points="66.01,78.06 39.2,78.06 39.2,140.61 66.01,140.61 "/>
   <path class="fil1" d="M187.18 204.14l-27.04 0 -0.22 -2.08 -0.61 -6.05 -2.14 -20.88 -19.84 0 -1.06 8.85c-5.66,2.61 -11.81,5.33 -18.5,8.18l0 3.86 17.06 0 -0.72 6.05 -0.25 2.08 -26.05 0 8.84 -72.75 3.49 -28.7 12.48 -102.69 31.26 0 8.19 71.73 -23.36 17.07c-0.25,-3.23 -0.49,-6.48 -0.74,-9.75 -0.05,-0.58 -0.09,-1.16 -0.13,-1.74 -0.2,-2.69 -0.4,-5.39 -0.59,-8.11 -0.63,8.88 -1.3,17.67 -2.03,26.36 -0.76,9.01 -1.57,17.92 -2.43,26.74 -0.93,9.53 -1.93,18.94 -2.98,28.26l14.38 0c-0.2,-1.93 -0.39,-3.87 -0.58,-5.8 -0.58,-5.8 -1.13,-11.6 -1.66,-17.41l22.18 -9.1 3.18 -0.56 4.35 38.08 2.68 23.45 2.84 24.92z"/>
   <path class="fil2" d="M159.31 196l-41.55 0 0 -3.86c6.69,-2.84 12.84,-5.56 18.5,-8.18 0.49,-0.22 0.97,-0.45 1.44,-0.67 6.03,-2.82 11.49,-5.53 16.41,-8.18l3.05 0 2.14 20.88z"/>
   <path class="fil3" d="M66.01 107.67l0 30.38c4.05,-0.04 8.09,-0.2 12.08,-0.47 8.15,-0.54 16.17,-1.55 23.91,-2.97 5.01,-0.91 9.9,-1.99 14.64,-3.24l3.49 -28.7c-15.66,3.27 -32.95,5.01 -50.1,5.01 -1.37,0 -2.71,-0.01 -4.02,-0.02z"/>
   <path class="fil3" d="M187.18 61.35l-2.06 18.02c-0.91,7.2 -4.36,14.08 -9.86,20.43l0 0.01c-5.91,6.84 -14.18,13.05 -24.14,18.4 -2.66,1.43 -5.45,2.8 -8.34,4.09 0.86,-8.82 1.67,-17.73 2.43,-26.74 1.32,-0.5 2.62,-1.01 3.89,-1.54 9.97,-4.13 18.18,-9.13 23.8,-14.9 3.55,-3.65 6.07,-7.61 7.32,-11.85l1.8 -5.92 5.16 0z"/>
   <path class="fil3" d="M198.09 146.61l0 -60.17 -3.34 7.09 0.77 20.86c0.63,17.41 -2.76,29.94 -13.86,41.37l2.68 23.45c5.11,-10.45 9.74,-21.42 13.76,-32.6z"/>
   <polygon class="fil2" points="52.58,172.61 72.46,192.81 92.02,173.25 72.14,153.37 "/>
  </g>
 </g>
</svg>
